<svg width="22" height="20" viewBox="0 0 22 20" fill="none" xmlns="http://www.w3.org/2000/svg">
<g id="Heart 3">
<g id="Vector">
<path d="M15.7439 3.29888C15.3567 3.15174 14.9236 3.34635 14.7764 3.73354C14.6293 4.12074 14.8239 4.55391 15.2111 4.70105C15.5718 4.83812 15.9483 5.07036 16.3266 5.44541C16.8083 5.92304 17.1132 6.44654 17.2832 6.9977C17.4053 7.39352 17.8251 7.61545 18.2209 7.49339C18.6167 7.37133 18.8387 6.95151 18.7166 6.55569C18.473 5.76564 18.037 5.02896 17.3827 4.38021C16.8665 3.8684 16.3147 3.51577 15.7439 3.29888Z" fill="#6ca0f9"/>
<path fill-rule="evenodd" clip-rule="evenodd" d="M9.80097 1.51257C8.91276 0.949138 7.69666 0.363369 6.34629 0.264512C4.95839 0.162909 3.48049 0.581733 2.15293 1.93557C0.585652 3.53386 0.093935 5.50688 0.291386 7.50265C0.486562 9.47541 1.35189 11.4808 2.50599 13.2578C3.66318 15.0396 5.14137 16.6392 6.62433 17.8008C8.07468 18.9368 9.65271 19.75 10.9999 19.75C12.3471 19.75 13.9251 18.9368 15.3755 17.8008C16.8584 16.6392 18.3366 15.0396 19.4938 13.2578C20.6479 11.4808 21.5132 9.47542 21.7084 7.50265C21.9059 5.50689 21.4142 3.53386 19.8469 1.93557C18.5193 0.581747 17.0414 0.162926 15.6535 0.264528C14.3032 0.363382 13.0871 0.949145 12.1989 1.51257C11.4984 1.95689 10.5014 1.95689 9.80097 1.51257ZM3.22393 2.98579C4.23056 1.95923 5.27124 1.68983 6.23677 1.76051C7.23984 1.83394 8.21203 2.28097 8.99748 2.77922C10.1884 3.53467 11.8114 3.53467 13.0024 2.77922C13.7878 2.28098 14.76 1.83395 15.7631 1.76052C16.7286 1.68984 17.7693 1.95925 18.7759 2.98579C19.9791 4.21283 20.3775 5.71987 20.2157 7.35497C20.0517 9.01307 19.3085 10.7893 18.2358 12.4408C17.1663 14.0876 15.7996 15.5632 14.4505 16.6199C13.0688 17.7021 11.8278 18.25 10.9999 18.25C10.172 18.25 8.93093 17.7021 7.54927 16.6199C6.20022 15.5632 4.83349 14.0876 3.76396 12.4408C2.69134 10.7893 1.94814 9.01307 1.7841 7.35497C1.62233 5.71987 2.0207 4.21282 3.22393 2.98579Z" fill="#6ca0f9"/>
</g>
</g>
</svg>
