<svg width="20" height="22" viewBox="0 0 20 22" fill="none" xmlns="http://www.w3.org/2000/svg">
<g id="Document  Align Center 2">
<g id="Vector">
<path d="M6 8.25C5.58579 8.25 5.25 8.58579 5.25 9C5.25 9.41421 5.58579 9.75 6 9.75H14C14.4142 9.75 14.75 9.41421 14.75 9C14.75 8.58579 14.4142 8.25 14 8.25H6Z" fill="black"/>
<path d="M8 12.25C7.58579 12.25 7.25 12.5858 7.25 13C7.25 13.4142 7.58579 13.75 8 13.75H12C12.4142 13.75 12.75 13.4142 12.75 13C12.75 12.5858 12.4142 12.25 12 12.25H8Z" fill="black"/>
<path d="M6 16.25C5.58579 16.25 5.25 16.5858 5.25 17C5.25 17.4142 5.58579 17.75 6 17.75H14C14.4142 17.75 14.75 17.4142 14.75 17C14.75 16.5858 14.4142 16.25 14 16.25H6Z" fill="black"/>
<path fill-rule="evenodd" clip-rule="evenodd" d="M16.7782 0.981678C16.0049 0.591725 15.107 0.418172 14.0324 0.333724C12.9669 0.249994 11.6555 0.249997 10.0305 0.25H9.97961C8.55252 0.25 7.36897 0.25 6.38484 0.305723C5.39671 0.361672 4.55633 0.47576 3.82759 0.727205C3.38699 0.879231 2.98789 1.08103 2.62024 1.34815C2.13209 1.70281 1.70281 2.13209 1.34815 2.62023C0.762324 3.42656 0.500006 4.37094 0.373728 5.53648C0.249985 6.67861 0.249992 8.11821 0.25 9.95475V12.0452C0.249992 13.8818 0.249985 15.3214 0.373728 16.4635C0.500006 17.6291 0.762324 18.5734 1.34815 19.3798C1.70281 19.8679 2.13209 20.2972 2.62024 20.6518C3.42656 21.2377 4.37094 21.5 5.53648 21.6263C6.67859 21.75 8.11817 21.75 9.95465 21.75H10.0453C11.8818 21.75 13.3214 21.75 14.4635 21.6263C15.6291 21.5 16.5734 21.2377 17.3798 20.6518C17.8679 20.2972 18.2972 19.8679 18.6518 19.3798C19.2377 18.5734 19.5 17.6291 19.6263 16.4635C19.75 15.3214 19.75 13.8818 19.75 12.0453V9.95473C19.75 8.11824 19.75 6.67859 19.6263 5.53648C19.5 4.37094 19.2377 3.42656 18.6518 2.62023C18.2972 2.13209 17.8679 1.70281 17.3798 1.34815C17.1892 1.20967 16.9892 1.08809 16.7782 0.981678ZM10 1.75C11.6617 1.75 12.9149 1.75053 13.9149 1.82911C14.3502 1.86333 14.7236 1.91158 15.0492 1.97683C14.2309 2.78324 13.5734 3.40202 12.9856 3.8649C12.2161 4.47095 11.6262 4.75993 11.0288 4.85454C10.5883 4.92431 10.1396 4.92431 9.69912 4.85454C9.08459 4.75721 8.47813 4.45425 7.67572 3.81202C7.07917 3.33457 6.41092 2.70052 5.57917 1.87856C5.8479 1.84647 6.14312 1.82181 6.46964 1.80332C7.40668 1.75027 8.54848 1.75 10 1.75ZM13.9137 5.04333C14.6769 4.44231 15.5226 3.62405 16.5509 2.60065C16.8899 2.85505 17.189 3.15881 17.4383 3.50191C17.8074 4.00992 18.0225 4.66013 18.135 5.69804C18.249 6.74999 18.25 8.10843 18.25 10V12C18.25 13.8916 18.249 15.25 18.135 16.302C18.0225 17.3399 17.8074 17.9901 17.4383 18.4981C17.1762 18.8589 16.8589 19.1762 16.4981 19.4383C15.9901 19.8074 15.3399 20.0225 14.302 20.135C13.25 20.249 11.8916 20.25 10 20.25C8.10843 20.25 6.74999 20.249 5.69804 20.135C4.66013 20.0225 4.00992 19.8074 3.50191 19.4383C3.14111 19.1762 2.82382 18.8589 2.56168 18.4981C2.19259 17.9901 1.97745 17.3399 1.865 16.302C1.75103 15.25 1.75 13.8916 1.75 12V10C1.75 8.10843 1.75103 6.74999 1.865 5.69804C1.97745 4.66013 2.19259 4.00992 2.56168 3.50191C2.82382 3.14111 3.14111 2.82382 3.50191 2.56168C3.62499 2.47225 3.7556 2.39247 3.8968 2.32123C5.02087 3.44359 5.92896 4.33525 6.73841 4.98311C7.64243 5.70666 8.48904 6.18158 9.46447 6.33608C10.0604 6.43047 10.6675 6.43047 11.2635 6.33608C12.2116 6.1859 13.0379 5.73301 13.9137 5.04333Z" fill="black"/>
</g>
</g>
</svg>
