<svg width="20" height="20" viewBox="0 0 20 20" fill="none" xmlns="http://www.w3.org/2000/svg">
<g id="Logout">
<g id="Vector">
<path d="M6.91919 0.250004C6.06717 0.249936 5.54819 0.249895 5.10051 0.3208C2.64013 0.710486 0.710487 2.64013 0.3208 5.10051C0.249896 5.54819 0.249937 6.06717 0.250004 6.91919L0.250004 13.0808C0.249936 13.9328 0.249895 14.4518 0.3208 14.8995C0.710486 17.3599 2.64013 19.2895 5.10051 19.6792C5.54819 19.7501 6.06718 19.7501 6.91921 19.75L8.00001 19.75C9.29359 19.75 10.4894 19.3219 11.4504 18.6C11.7816 18.3513 11.8485 17.8811 11.5997 17.5499C11.3509 17.2188 10.8808 17.1519 10.5496 17.4007C9.83933 17.9342 8.95763 18.25 8.00001 18.25H7.00001C6.04234 18.25 5.65083 18.2477 5.33516 18.1977C3.51662 17.9097 2.09036 16.4834 1.80233 14.6649C1.75234 14.3492 1.75001 13.9577 1.75001 13L1.75001 7.00001C1.75001 6.04234 1.75234 5.65083 1.80233 5.33516C2.09036 3.51662 3.51662 2.09036 5.33516 1.80233C5.65083 1.75234 6.04234 1.75001 7.00001 1.75001H8.00001C8.95764 1.75001 9.83934 2.06583 10.5496 2.59932C10.8808 2.84808 11.3509 2.78127 11.5997 2.45008C11.8485 2.11888 11.7816 1.64874 11.4504 1.39997C10.4894 0.678072 9.29359 0.250008 8.00001 0.250008L6.91919 0.250004Z" fill="red"/>
<path d="M15.466 5.41232C15.1414 5.15498 14.6697 5.20947 14.4123 5.53404C14.155 5.85861 14.2095 6.33034 14.534 6.58769L16.297 7.98554C17.001 8.54376 17.483 8.92735 17.8105 9.25001L5.00001 9.25001C4.58579 9.25001 4.25001 9.58579 4.25001 10C4.25001 10.4142 4.58579 10.75 5.00001 10.75L17.8105 10.75C17.483 11.0727 17.001 11.4563 16.297 12.0145L14.534 13.4123C14.2095 13.6697 14.155 14.1414 14.4123 14.466C14.6697 14.7905 15.1414 14.845 15.466 14.5877L17.2648 13.1615C17.9372 12.6283 18.4922 12.1883 18.8875 11.7945C19.2932 11.3904 19.6295 10.9419 19.7208 10.3687C19.7402 10.2466 19.75 10.1234 19.75 10C19.75 9.87662 19.7402 9.75345 19.7208 9.63134C19.6295 9.05817 19.2932 8.60963 18.8875 8.20552C18.4922 7.81173 17.9373 7.37176 17.2648 6.83858L15.466 5.41232Z" fill="red"/>
</g>
</g>
</svg>
