<svg width="24" height="24" viewBox="0 0 24 24" fill="none" xmlns="http://www.w3.org/2000/svg">
<g id="Customer Support 5" clip-path="url(#clip0_49_125)">
<g id="customer-support-5--customer-headset-help-phone-support">
<path id="Ellipse 18" d="M12 1.28564C4.95428 1.28564 0.925709 6.50222 1.35428 11.6519L1.74857 16.0662" stroke="black" stroke-width="1.71429" stroke-linecap="round" stroke-linejoin="round"/>
<path id="Ellipse 19" d="M12 1.28564C19.0457 1.28564 23.0743 6.50222 22.6457 11.6519L22.2514 16.0662" stroke="black" stroke-width="1.71429" stroke-linecap="round" stroke-linejoin="round"/>
<path id="Rectangle 15" d="M15.276 14.9844C15.3152 14.5358 15.4425 14.0994 15.6504 13.7C15.8584 13.3006 16.1429 12.9461 16.4879 12.6567C16.8329 12.3673 17.2314 12.1486 17.6609 12.0133C18.0904 11.8779 18.5423 11.8285 18.9908 11.8678L19.1794 11.885C20.085 11.9643 20.9221 12.4 21.5065 13.0963C22.0909 13.7926 22.3749 14.6925 22.296 15.5981L21.9737 19.2993C21.9344 19.7478 21.8072 20.1843 21.5993 20.5837C21.3913 20.9831 21.1068 21.3376 20.7618 21.627C20.4168 21.9164 20.0182 22.135 19.5888 22.2704C19.1593 22.4057 18.7074 22.4551 18.2588 22.4158L18.0703 22.3987C17.6216 22.3596 17.1849 22.2326 16.7853 22.0247C16.3857 21.8169 16.031 21.5323 15.7414 21.1873C15.4519 20.8424 15.2331 20.4437 15.0976 20.0141C14.9622 19.5846 14.9127 19.1325 14.952 18.6838L15.2777 14.9844H15.276Z" stroke="black" stroke-width="1.71429" stroke-linecap="round" stroke-linejoin="round"/>
<path id="Rectangle 16" d="M1.70398 15.6C1.66467 15.1514 1.7141 14.6995 1.84945 14.27C1.9848 13.8406 2.20342 13.442 2.49282 13.097C2.78223 12.7521 3.13675 12.4675 3.53615 12.2595C3.93554 12.0516 4.37198 11.9244 4.82055 11.8851L5.00912 11.868C5.45782 11.8284 5.90992 11.8777 6.33957 12.0129C6.76923 12.1482 7.16803 12.3667 7.51318 12.6562C7.85832 12.9456 8.14306 13.3002 8.35111 13.6997C8.55916 14.0992 8.68644 14.5358 8.72569 14.9845L9.04969 18.684C9.08901 19.1325 9.03958 19.5845 8.90423 20.0139C8.76888 20.4434 8.55026 20.842 8.26085 21.1869C7.97144 21.5319 7.61692 21.8165 7.21753 22.0244C6.81813 22.2323 6.38169 22.3596 5.93312 22.3988L5.74455 22.416C5.29585 22.4555 4.84376 22.4063 4.4141 22.271C3.98444 22.1358 3.58565 21.9172 3.2405 21.6278C2.89535 21.3384 2.61062 20.9838 2.40257 20.5842C2.19452 20.1847 2.06723 19.7481 2.02798 19.2994L1.70398 15.6Z" stroke="black" stroke-width="1.71429" stroke-linecap="round" stroke-linejoin="round"/>
</g>
</g>
<defs>
<clipPath id="clip0_49_125">
<rect width="24" height="24" fill="white"/>
</clipPath>
</defs>
</svg>
