<svg width="24" height="24" viewBox="0 0 24 24" fill="none" xmlns="http://www.w3.org/2000/svg">
<g id="Car 3" clip-path="url(#clip0_42_109)">
<g id="Group">
<path id="Vector" d="M23.71 9.09994C23.9271 8.73899 24.0283 8.32018 24 7.89994C24.0048 7.48631 23.8903 7.08007 23.67 6.72994C23.4536 6.51583 23.189 6.35684 22.8984 6.26634C22.6078 6.17585 22.2997 6.1565 22 6.20994C21.2396 6.31613 20.5489 6.70981 20.07 7.30994C20.0125 7.40254 19.9624 7.49951 19.92 7.59994C19.7711 6.70948 19.5264 5.83775 19.19 4.99994C18.8958 4.36559 18.4048 3.84306 17.79 3.50994C17.2557 3.26451 16.6905 3.09293 16.11 2.99994C15.5306 2.88681 14.939 2.84983 14.35 2.88994L9.74 2.94994C9.1603 2.89075 8.57535 2.90756 8 2.99994C7.4244 3.12586 6.86909 3.33115 6.35 3.60994C5.74599 3.9416 5.27065 4.46624 5 5.09994C4.67396 5.92936 4.43598 6.79076 4.29 7.66994V7.89994C4.29 7.82994 4.29 7.75994 4.22 7.69994C4.15576 7.51312 4.06842 7.33508 3.96 7.16994C3.47564 6.5594 2.77271 6.16131 2 6.05994C1.70191 6.00982 1.39619 6.0308 1.10773 6.12116C0.819275 6.21152 0.556229 6.36871 0.34 6.57994C0.11489 6.93209 -0.00321715 7.34199 4.56348e-07 7.75994C-0.0410207 8.19383 0.0608101 8.62924 0.29 8.99994C0.569742 9.28726 0.911927 9.50626 1.29 9.63994C1.75725 9.8168 2.25063 9.9148 2.75 9.92994C2.58 10.0199 2.4 10.0999 2.23 10.2099C2.02081 10.3497 1.82646 10.5106 1.65 10.6899C1.52715 10.8251 1.42899 10.9808 1.36 11.1499C1.24 11.4499 1.18 11.7999 1.07 12.0799C0.828854 12.7187 0.710119 13.3972 0.720001 14.0799C0.723077 14.4885 0.756502 14.8963 0.82 15.2999C0.600001 15.5599 0.58 15.7599 0.89 15.6999L0.94 15.9999C1 16.2499 1.06 16.4899 1.13 16.7199C1.2 16.9499 1.29 17.1899 1.39 17.4299C1.43225 17.5563 1.48235 17.6798 1.54 17.7999C1.58758 17.8721 1.65304 17.9306 1.73 17.9699C2.05879 18.0415 2.39362 18.0816 2.73 18.0899C2.73 18.2599 2.73 18.4499 2.67 18.4899C2.59481 18.8521 2.55131 19.2202 2.54 19.5899C2.54733 19.9016 2.62966 20.2069 2.78 20.4799C2.89529 20.6554 3.05837 20.7942 3.25 20.8799C3.51258 20.9737 3.78395 21.0407 4.06 21.0799L4.49 21.1699C4.64983 21.1805 4.81017 21.1805 4.97 21.1699C5.28616 21.183 5.59969 21.1075 5.87529 20.952C6.1509 20.7966 6.37764 20.5673 6.53 20.2899C6.79808 19.628 6.88774 18.9074 6.79 18.1999C10.05 18.2599 14.19 18.2899 16.84 18.3299C16.8431 18.3732 16.8431 18.4167 16.84 18.4599C16.7683 18.8224 16.7281 19.1905 16.72 19.5599C16.7192 19.8714 16.7984 20.1778 16.95 20.4499C17.0666 20.6281 17.2338 20.7673 17.43 20.8499C17.6888 20.9448 17.957 21.0118 18.23 21.0499L18.66 21.1399C18.8198 21.1502 18.9802 21.1502 19.14 21.1399C19.4562 21.153 19.7697 21.0775 20.0453 20.922C20.3209 20.7666 20.5476 20.5373 20.7 20.2599C20.9541 19.6819 21.0574 19.0488 21 18.4199H21.2C21.6382 18.3918 22.0681 18.2868 22.47 18.1099C22.5737 18.059 22.6606 17.9791 22.72 17.8799C22.7924 17.7538 22.8494 17.6195 22.89 17.4799C23.0929 17.0094 23.2503 16.5205 23.36 16.0199C23.5103 15.3638 23.5875 14.6931 23.59 14.0199C23.5972 13.3161 23.4717 12.6172 23.22 11.9599C23.11 11.6799 23.05 11.3299 22.92 11.0299C22.8436 10.8404 22.7316 10.6673 22.59 10.5199C22.4156 10.3229 22.2174 10.1482 22 9.99994H21.93C22.2132 9.95384 22.4912 9.88015 22.76 9.77994C23.124 9.62796 23.4488 9.39547 23.71 9.09994ZM1.14 8.29994C0.99 8.29994 1.14 7.83994 1.14 7.59994C1.14 7.35994 1.14 7.26994 1.21 7.29994C1.34714 7.21409 1.50046 7.15736 1.66045 7.13328C1.82044 7.1092 1.98367 7.11827 2.14 7.15994C2.57548 7.23103 2.98149 7.42536 3.31 7.71994L4 8.99994C4.01097 9.0404 4.03573 9.07577 4.07 9.09994H3.94C3.85935 9.09882 3.78109 9.12728 3.72 9.17994C3.6 8.99994 3 9.09994 2.9 9.08994C2.55461 9.04115 2.2179 8.94351 1.9 8.79994C1.61162 8.69386 1.35156 8.52277 1.14 8.29994ZM2 17.1599C1.92 16.9399 1.84 16.7299 1.78 16.5099C1.7116 16.2897 1.65485 16.0661 1.61 15.8399C1.61 15.7099 1.61 15.5599 1.55 15.4299C1.63275 15.4077 1.71071 15.3704 1.78 15.3199L2.24 15.2599C2.47175 15.2604 2.70288 15.2839 2.93 15.3299C3.24034 15.3503 3.54165 15.4427 3.81 15.5999C3.86868 15.6295 3.92096 15.6703 3.96386 15.7201C4.00676 15.7698 4.03942 15.8275 4.06 15.8899C4.12916 16.1177 4.17276 16.3525 4.19 16.5899C4.19 16.6599 4.19 17.1899 4.28 17.3899V17.4899C3.15 17.4899 2.33 17.4899 2.06 17.4199C2.18 17.3699 2.05 17.2199 2 17.1599ZM5.82 19.5599C5.75004 19.7127 5.63204 19.8384 5.48399 19.9178C5.33594 19.9973 5.16597 20.0261 5 19.9999L4.35 19.9099C4.18 19.9099 3.61 19.9899 3.66 19.8199C3.56871 19.7068 3.50687 19.5728 3.48 19.4299C3.42441 19.1164 3.39763 18.7984 3.4 18.4799C3.41456 18.3437 3.41456 18.2062 3.4 18.0699C3.96 18.0699 4.62 18.1299 5.4 18.1399H6.13C6.11249 18.626 6.01449 19.1059 5.84 19.5599H5.82ZM19.97 19.5599C19.9021 19.7221 19.7808 19.8562 19.6262 19.9399C19.4715 20.0236 19.2929 20.0518 19.12 20.0199L18.47 19.9299C18.3 19.9299 17.73 20.0099 17.78 19.8399C17.6887 19.7268 17.6269 19.5928 17.6 19.4499C17.5427 19.1367 17.5192 18.8182 17.53 18.4999C17.5232 18.4435 17.5232 18.3864 17.53 18.3299C18.48 18.3299 19.15 18.3299 19.38 18.3899C19.61 18.4499 19.89 18.3899 20.21 18.4399C20.1987 18.8219 20.1279 19.1998 20 19.5599H19.97ZM22.09 16.4299C22.0301 16.6444 21.9566 16.8548 21.87 17.0599L21.82 17.2299C21.5725 17.3058 21.3178 17.356 21.06 17.3799C20.5443 17.4241 20.0257 17.4241 19.51 17.3799C19.51 17.1699 19.58 16.6499 19.59 16.5799C19.6121 16.3432 19.6556 16.1089 19.72 15.8799C19.7412 15.8164 19.7752 15.7579 19.8199 15.708C19.8647 15.6581 19.9191 15.6179 19.98 15.5899C20.2445 15.4322 20.5427 15.3396 20.85 15.3199C21.0772 15.2743 21.3083 15.2509 21.54 15.2499L22 15.3199L22.27 15.4099L22.21 15.7499C22.1893 15.9783 22.1559 16.2053 22.11 16.4299H22.09ZM21.88 11.5699C21.8439 11.5606 21.8061 11.5606 21.77 11.5699C21.77 11.4799 21.45 11.5199 21.38 11.5199L20.45 11.3699C19.7408 11.2732 19.0257 11.2264 18.31 11.2299C17.7534 11.2754 17.2236 11.488 16.79 11.8399C16.7248 11.8199 16.6552 11.8199 16.59 11.8399H16.51C16.3 11.8399 15.95 11.7199 15.51 11.6599C15.3669 11.6496 15.2231 11.6496 15.08 11.6599C14.9202 11.65 14.7598 11.65 14.6 11.6599C14.2139 11.7126 13.8327 11.7962 13.46 11.9099C13.3804 11.9099 13.3041 11.9415 13.2479 11.9978C13.1916 12.0541 13.16 12.1304 13.16 12.2099C13.16 12.2895 13.1916 12.3658 13.2479 12.4221C13.3041 12.4783 13.3804 12.5099 13.46 12.5099C13.71 12.5099 14.1 12.6799 14.56 12.7499C14.7197 12.7648 14.8803 12.7648 15.04 12.7499C15.2576 12.7413 15.4745 12.7212 15.69 12.6899L16.18 12.6099C15.996 13.0905 15.8522 13.5856 15.75 14.0899C15.7303 14.284 15.6725 14.4722 15.5798 14.6438C15.4871 14.8154 15.3615 14.9671 15.21 15.0899C15.1117 15.1515 15.0034 15.1955 14.89 15.2199C14.53 15.2999 14.11 15.2999 13.79 15.3899C13.7513 15.3971 13.7143 15.4119 13.6813 15.4334C13.6482 15.4549 13.6198 15.4827 13.5975 15.5152C13.5752 15.5477 13.5595 15.5843 13.5514 15.6228C13.5432 15.6614 13.5428 15.7012 13.55 15.7399C13.5572 15.7787 13.572 15.8156 13.5935 15.8487C13.615 15.8817 13.6428 15.9102 13.6753 15.9325C13.7078 15.9547 13.7444 15.9704 13.7829 15.9786C13.8215 15.9867 13.8613 15.9872 13.9 15.9799H15C15.2038 15.9713 15.4041 15.9238 15.59 15.8399C15.8843 15.7116 16.1371 15.5038 16.32 15.2399C16.6251 14.7757 16.8546 14.2661 17 13.7299C17.0818 13.3565 17.2612 13.0114 17.52 12.7299C17.7836 12.4963 18.1109 12.3465 18.46 12.2999C19.1246 12.2348 19.7922 12.2048 20.46 12.2099H21.39H21.82C21.9125 12.2024 21.9985 12.1594 22.06 12.0899C22.06 12.1599 22.11 12.2399 22.14 12.3099C22.3499 12.8487 22.4584 13.4217 22.46 13.9999V14.7899L22.37 14.7299L21.76 14.4599C21.3972 14.3335 21.014 14.2759 20.63 14.2899C20.208 14.3022 19.7957 14.419 19.43 14.6299C19.1432 14.8189 18.9311 15.1017 18.83 15.4299C18.7545 15.8129 18.7545 16.207 18.83 16.5899C18.83 16.6599 18.72 17.3399 18.92 17.3399C16.64 17.3399 9.76 17.4599 5.49 17.4499H5C5.01028 17.414 5.01028 17.3759 5 17.3399C5.19 17.3399 5.07 16.6499 5.08 16.5899C5.15067 16.2065 5.15067 15.8134 5.08 15.4299C4.98028 15.0982 4.76352 14.8139 4.47 14.6299C4.10676 14.4204 3.69883 14.3004 3.28 14.2799C2.89338 14.2757 2.50856 14.3331 2.14 14.4499L1.53 14.7299C1.51504 14.4935 1.51504 14.2564 1.53 14.0199C1.53006 13.4309 1.64205 12.8472 1.86 12.2999C1.90742 12.1791 1.94749 12.0556 1.98 11.9299L2 11.9999C2.33673 11.9967 2.67208 11.9565 3 11.8799C3.09943 11.8649 3.20057 11.8649 3.3 11.8799L4.07 12.1299L4.42 12.3299C4.51515 12.3887 4.60251 12.4593 4.68 12.5399C4.85536 12.7242 4.98546 12.9467 5.06 13.1899C5.20308 13.655 5.31335 14.1295 5.39 14.6099C5.43147 14.7815 5.50997 14.9419 5.62 15.0799C5.79623 15.2673 5.98321 15.4443 6.18 15.6099C6.41373 15.8106 6.69682 15.9453 7 15.9999C7.59461 16.0701 8.19539 16.0701 8.79 15.9999C8.88017 15.9999 8.96665 15.9641 9.03042 15.9004C9.09418 15.8366 9.13 15.7501 9.13 15.6599C9.13 15.5698 9.09418 15.4833 9.03042 15.4195C8.96665 15.3558 8.88017 15.3199 8.79 15.3199C8.33089 15.3159 7.87282 15.2758 7.42 15.1999C7.19498 15.1698 6.98691 15.064 6.83 14.8999L6.42 14.3699C6.35375 13.8244 6.23998 13.2857 6.08 12.7599C6.08 12.6799 6 12.5999 5.96 12.5199H6C6.32 12.5199 6.62 12.6399 7 12.6799H7.41C7.55315 12.6902 7.69685 12.6902 7.84 12.6799C8.2 12.6799 8.54 12.5699 8.84 12.5099C8.93017 12.5099 9.01665 12.4741 9.08042 12.4104C9.14418 12.3466 9.18 12.2601 9.18 12.1699C9.18 12.0798 9.14418 11.9933 9.08042 11.9295C9.01665 11.8658 8.93017 11.8299 8.84 11.8299C8.51 11.7699 8.18 11.6499 7.84 11.5999C7.604 11.5748 7.366 11.5748 7.13 11.5999C6.71237 11.6564 6.30692 11.7814 5.93 11.9699C5.89034 11.9756 5.85221 11.9891 5.81786 12.0097C5.78351 12.0303 5.75364 12.0576 5.73 12.0899C5.63365 11.9551 5.52301 11.831 5.4 11.7199C5.27495 11.6153 5.14112 11.5216 5 11.4399C4.81555 11.353 4.62505 11.2794 4.43 11.2199C4.29135 11.1669 4.14707 11.13 4 11.1099L3.38 11.0499C3.25687 11.04 3.13313 11.04 3.01 11.0499C2.7 11.1199 2.42 11.2799 2.11 11.3199L2.22 11.1699C2.39693 10.9942 2.59917 10.8459 2.82 10.7299C3.2 10.5199 3.61 10.3699 4 10.1399C4.12 10.0699 4.37 9.99994 4.53 9.91994C4.61181 9.87057 4.68881 9.81366 4.76 9.74994C4.81222 9.69308 4.84995 9.62448 4.87 9.54994C4.88082 9.43018 4.88082 9.30969 4.87 9.18994L5.12 7.80994C5.26292 6.99715 5.4943 6.20242 5.81 5.43994C6.02295 5.00474 6.3748 4.65288 6.81 4.43994C7.24667 4.22823 7.71138 4.08007 8.19 3.99994C8.68095 3.90751 9.18198 3.88061 9.68 3.91994H14.42C14.9127 3.89532 15.4065 3.93227 15.89 4.02994C16.3694 4.12615 16.8313 4.29475 17.26 4.52994C17.6665 4.74934 17.9845 5.10267 18.16 5.52994C18.4613 6.28812 18.6825 7.07573 18.82 7.87994L19.05 9.26994C19.0524 9.24332 19.0524 9.21655 19.05 9.18994C19.0888 9.41422 19.156 9.63264 19.25 9.83994C19.3289 9.91779 19.4201 9.982 19.52 10.0299C19.67 10.1199 19.91 10.1799 20.04 10.2599C20.42 10.4899 20.83 10.6499 21.21 10.8599C21.4177 10.9694 21.6067 11.1112 21.77 11.2799C21.838 11.3572 21.8861 11.4499 21.91 11.5499L21.88 11.5699ZM21.56 12.1299C21.5284 12.101 21.5039 12.0653 21.4883 12.0254C21.4727 11.9855 21.4664 11.9426 21.47 11.8999C21.4764 11.9877 21.5157 12.0698 21.58 12.1299H21.56ZM21.1 9.23994C20.9002 9.22814 20.6998 9.22814 20.5 9.23994L20.17 9.08994V8.93994L20.71 7.93994C21.0359 7.64146 21.4431 7.44655 21.88 7.37994C22.0363 7.33827 22.1996 7.3292 22.3596 7.35328C22.5195 7.37736 22.6729 7.43409 22.81 7.51994C22.88 7.51994 22.81 7.69994 22.88 7.81994C22.95 7.93994 23.04 8.53994 22.88 8.50994C22.6781 8.73264 22.4286 8.90696 22.15 9.01994C21.8126 9.14417 21.4589 9.21829 21.1 9.23994Z" fill="black"/>
<path id="Vector_2" d="M18.2 9.07987C17.2 9.07987 14.9 8.89987 12.55 8.86987H10.29C8.81 8.91987 7.55 9.02987 6.9 9.06987L5.71 9.16987C5.63043 9.16987 5.55413 9.20148 5.49787 9.25774C5.44161 9.314 5.41 9.39031 5.41 9.46987C5.4086 9.50965 5.41541 9.54928 5.42999 9.58631C5.44457 9.62334 5.46662 9.65697 5.49476 9.68511C5.5229 9.71325 5.55653 9.7353 5.59356 9.74988C5.63059 9.76447 5.67023 9.77127 5.71 9.76987H6.9C7.51 9.76987 8.68 9.88987 10.07 9.93987H11.42H13.42C15.42 9.87987 17.33 9.73987 18.16 9.70987C18.2494 9.70735 18.3344 9.67072 18.3976 9.6075C18.4609 9.54427 18.4975 9.45925 18.5 9.36987C18.4893 9.29507 18.454 9.22596 18.3997 9.17344C18.3454 9.12093 18.2751 9.088 18.2 9.07987Z" fill="black"/>
<path id="Vector_3" d="M12.42 12.3699C12.1325 12.1986 11.8123 12.0895 11.48 12.0499C11.1374 12.0133 10.7913 12.0721 10.48 12.2199C10.3626 12.2815 10.252 12.3552 10.15 12.4399C10.0407 12.5344 9.94333 12.6418 9.86001 12.7599C9.57819 13.1151 9.41081 13.5475 9.38001 13.9999C9.3573 14.4689 9.51879 14.9282 9.83001 15.2799C9.93593 15.39 10.0572 15.4843 10.19 15.5599C10.3404 15.6377 10.4978 15.7013 10.66 15.7499C10.9649 15.8388 11.2832 15.8727 11.6 15.8499C11.9321 15.8301 12.2545 15.7307 12.54 15.5599C12.8186 15.3847 13.0411 15.1334 13.1811 14.8356C13.3212 14.5378 13.3728 14.2061 13.33 13.8799C13.3038 13.5754 13.2081 13.2809 13.0504 13.0192C12.8926 12.7574 12.677 12.5353 12.42 12.3699ZM12 14.6099C11.8409 14.6718 11.6705 14.6991 11.5 14.6899C11.3204 14.6892 11.1418 14.6622 10.97 14.6099L10.65 14.4699C10.5203 14.3302 10.4426 14.1501 10.43 13.9599C10.4197 13.724 10.4714 13.4895 10.58 13.2799L10.82 12.9799C10.9844 12.8651 11.1795 12.8024 11.38 12.7999C11.5982 12.7831 11.8173 12.8173 12.02 12.8999C12.1674 13.0192 12.2835 13.1726 12.3584 13.3468C12.4333 13.521 12.4647 13.7108 12.45 13.8999C12.4506 14.0488 12.4086 14.1948 12.3288 14.3207C12.2491 14.4465 12.135 14.5468 12 14.6099Z" fill="black"/>
</g>
</g>
<defs>
<clipPath id="clip0_42_109">
<rect width="24" height="24" fill="white"/>
</clipPath>
</defs>
</svg>
