<svg width="24" height="24" viewBox="0 0 24 24" fill="none" xmlns="http://www.w3.org/2000/svg">
<g id="Wallet">
<g id="Vector">
<path d="M16.0624 12.1269C15.6002 12.1269 15.2256 12.5017 15.2256 12.9641C15.2256 13.4265 15.6002 13.8013 16.0624 13.8013H19.1056C19.5677 13.8013 19.9424 13.4265 19.9424 12.9641C19.9424 12.5017 19.5677 12.1269 19.1056 12.1269H16.0624Z" fill="black"/>
<path fill-rule="evenodd" clip-rule="evenodd" d="M20.5381 2.37485C20.6244 2.87044 20.6454 3.45937 20.6512 4.13318C20.748 4.18369 20.843 4.23746 20.9363 4.29469C21.7996 4.82394 22.5255 5.55008 23.0545 6.41373C23.637 7.36464 23.8488 8.46671 23.9363 9.86746C23.9999 10.8865 23.9999 12.1259 23.9999 13.6482V13.6797C23.9999 14.5527 23.9999 15.3303 23.9885 16.0224C23.9527 18.1744 23.8134 19.6961 23.0545 20.9351C22.5255 21.7988 21.7996 22.5249 20.9363 23.0542C20.1119 23.5596 19.1768 23.7848 18.0347 23.8934C16.9142 24 15.5117 24 13.7226 24H10.2872C8.49819 24 7.09561 24 5.97513 23.8934C4.83304 23.7848 3.89787 23.5596 3.07348 23.0542C2.21018 22.5249 1.48434 21.7988 0.955306 20.9351C0.450119 20.1104 0.224968 19.1748 0.116376 18.0323C0.00983969 16.9113 0.0098452 15.5082 0.00985232 13.7184L0.00994124 13.1315C-0.00476213 12.5799 -0.00024671 11.9632 0.00462194 11.2982C0.00718815 10.9478 0.00985245 10.5839 0.00985245 10.2091L0.00985232 10.1607C0.00984354 8.24934 0.00983669 6.74926 0.133511 5.55871C0.259651 4.34443 0.521956 3.354 1.11354 2.50477C1.47096 1.99169 1.90458 1.53905 2.39924 1.16421C3.22306 0.53995 4.1871 0.262438 5.36274 0.129591C6.50973 -1.57855e-05 7.95266 -6.66659e-06 9.78047 4.84404e-06L15.8819 1.65034e-06C16.7729 -3.70744e-05 17.5281 -6.98954e-05 18.1302 0.0843587C18.7733 0.174536 19.3635 0.375144 19.8357 0.867662C20.2456 1.29517 20.4398 1.81092 20.5381 2.37485ZM15.823 1.67442C16.7889 1.67442 17.4257 1.67635 17.8979 1.74257C18.3423 1.80489 18.5152 1.90927 18.6279 2.02675C18.732 2.13539 18.826 2.2994 18.8892 2.6624C18.9315 2.9051 18.9546 3.20175 18.9668 3.58124C18.5063 3.49691 18.0092 3.44494 17.4678 3.41152C16.4524 3.34884 15.2184 3.34884 13.7045 3.34884H10.2873C8.49817 3.34883 7.09562 3.34883 5.97513 3.45541C4.83304 3.56405 3.89787 3.78929 3.07348 4.29469C2.62907 4.56713 2.22109 4.89176 1.85763 5.26045C1.9801 4.44855 2.18067 3.90145 2.4867 3.46212C2.74511 3.09118 3.05688 2.7664 3.40982 2.49896C3.89825 2.12885 4.52628 1.90918 5.5506 1.79343C6.59272 1.67567 7.94116 1.67442 9.83248 1.67442H15.823ZM3.948 5.72236C4.46521 5.40528 5.11398 5.21929 6.13356 5.12231C7.1656 5.02414 8.48869 5.02326 10.3312 5.02326H13.6786C15.2236 5.02326 16.4067 5.02362 17.3647 5.08276C18.3219 5.14184 18.991 5.25703 19.5185 5.45744C19.7161 5.5325 19.8949 5.62002 20.0618 5.72236C20.6999 6.11355 21.2364 6.65026 21.6274 7.28861C21.9026 7.73785 22.0779 8.28391 22.183 9.08247H16.0624C13.9195 9.08247 12.1824 10.8203 12.1824 12.9641C12.1824 15.1078 13.9195 16.8457 16.0624 16.8457H22.292C22.2275 18.4758 22.0497 19.3708 21.6274 20.0602C21.2364 20.6986 20.6999 21.2353 20.0618 21.6265C19.5446 21.9436 18.8958 22.1296 17.8762 22.2265C16.8442 22.3247 15.5211 22.3256 13.6786 22.3256H10.3312C8.48869 22.3256 7.1656 22.3247 6.13356 22.2265C5.11398 22.1296 4.46521 21.9436 3.948 21.6265C3.30991 21.2353 2.77342 20.6986 2.38239 20.0602C2.06545 19.5428 1.87953 18.8938 1.78259 17.8738C1.68446 16.8413 1.68358 15.5177 1.68358 13.6744C1.68358 11.8312 1.68446 10.5075 1.78259 9.47508C1.87953 8.45508 2.06545 7.80604 2.38239 7.28861C2.77342 6.65026 3.30991 6.11355 3.948 5.72236ZM13.8561 12.9641C13.8561 11.7451 14.8439 10.7569 16.0624 10.7569H22.3012C22.326 11.565 22.3262 12.5184 22.3262 13.6744C22.3262 14.2146 22.3262 14.7114 22.3236 15.1713H16.0624C14.8439 15.1713 13.8561 14.1831 13.8561 12.9641Z" fill="black"/>
</g>
</g>
</svg>
