<svg width="24" height="24" viewBox="0 0 24 24" fill="none" xmlns="http://www.w3.org/2000/svg">
<g id="Group">
<path id="Vector" fill-rule="evenodd" clip-rule="evenodd" d="M23.8501 16.1598C23.441 15.3386 22.9143 14.5891 22.2888 13.9378L21.288 12.7528L20.157 11.4091C19.5765 10.7531 18.986 10.1077 18.4255 9.44107C18.0752 9.01785 17.735 8.58404 17.4247 8.15024C17.765 7.8434 18.1053 7.54714 18.4255 7.27205C18.4797 7.20951 18.5112 7.12875 18.5145 7.04403C18.5179 6.95932 18.4928 6.87608 18.4437 6.80901C18.3946 6.74195 18.3247 6.69536 18.2463 6.67748C18.1679 6.6596 18.0861 6.67157 18.0152 6.71127C17.1851 7.19468 16.38 7.72446 15.6032 8.29836C15.2563 8.55119 14.9222 8.82313 14.6023 9.11307C14.2947 9.40473 14.0039 9.71565 13.7316 10.0442C13.1414 10.7817 12.6373 11.5916 12.2303 12.4565C11.1531 11.6773 10.3978 10.4928 10.1185 9.14481C9.99013 8.50527 10.0315 7.84063 10.2382 7.22441C10.4449 6.6082 10.8087 6.06442 11.2895 5.65321C11.477 5.45559 11.6741 5.26841 11.88 5.09244C11.9891 5.00268 12.1065 4.9247 12.2303 4.85966C13.157 4.4224 14.2077 4.3807 15.1628 4.74328C16.1901 5.1543 17.152 5.72874 18.0152 6.44676C18.079 6.51395 18.1654 6.55168 18.2554 6.55168C18.3454 6.55168 18.4318 6.51395 18.4956 6.44676C18.5248 6.40996 18.5465 6.36719 18.5594 6.32111C18.5723 6.27503 18.576 6.22665 18.5704 6.17898C18.5647 6.13131 18.5498 6.08538 18.5266 6.04407C18.5034 6.00276 18.4724 5.96695 18.4356 5.93889C17.4072 4.85405 16.1576 4.03247 14.7825 3.53709C13.7904 3.25091 12.7376 3.31027 11.7799 3.70638C11.6769 3.74058 11.5791 3.79048 11.4897 3.85451C10.7591 3.00806 10.1886 2.07696 9.42795 1.30458C9.06708 0.933411 8.65958 0.616543 8.21693 0.362903C7.86476 0.164935 7.47808 0.0449998 7.08056 0.0104339C6.68304 -0.0241321 6.28302 0.0273977 5.90498 0.161871C5.50812 0.3145 5.15792 0.57819 4.89175 0.924796C4.62559 1.2714 4.45345 1.68791 4.39371 2.12987C4.39371 2.34148 4.39371 2.55309 4.32365 2.7647C4.25359 2.97632 4.32365 3.39954 4.32365 3.70638L4.55384 6.2034C3.7356 6.1857 2.9194 6.29623 2.1318 6.5314C1.61873 6.68971 1.1585 6.99827 0.804291 7.4214C0.450083 7.84454 0.216353 8.36499 0.13011 8.92262C0.0718043 9.16273 0.0283425 9.4066 0 9.65268L0 10.7107L0.200169 13.1549L0.540456 16.5512C0.569494 18.0306 0.676416 19.5071 0.860726 20.9739C0.986949 21.6999 1.29058 22.3784 1.74147 22.9419C2.1159 23.3339 2.58792 23.6054 3.10262 23.7249C4.09719 23.8743 5.10058 23.9486 6.10515 23.9471C6.56554 23.9471 7.02593 24 7.48631 24C7.9467 24 8.39708 24 8.84746 23.9259C10.1529 23.9614 11.4398 23.5937 12.5506 22.8679C12.9039 22.5341 13.1691 22.1088 13.32 21.6339C13.4709 21.1591 13.5023 20.6509 13.4113 20.1592L13.1511 18.4769C13.041 17.9479 12.9509 17.4189 12.8709 16.9004C12.7908 16.382 12.7207 15.8423 12.6507 15.3027C12.6509 15.2517 12.6409 15.2012 12.6213 15.1546C12.6017 15.108 12.573 15.0664 12.537 15.0324C12.501 14.9984 12.4586 14.973 12.4125 14.9576C12.3665 14.9423 12.318 14.9375 12.27 14.9436C12.2221 14.9496 12.176 14.9664 12.1347 14.9927C12.0934 15.0191 12.0578 15.0544 12.0304 15.0964C12.003 15.1383 11.9843 15.186 11.9756 15.2361C11.967 15.2863 11.9685 15.3379 11.9801 15.3874C12.0301 15.927 12.0902 16.4454 12.1502 17.0062C12.2103 17.567 12.3004 18.0643 12.3905 18.6356L12.5906 20.2439C12.6554 20.5868 12.633 20.9418 12.5258 21.2726C12.4185 21.6035 12.2302 21.8984 11.9801 22.1272C11.0019 22.6822 9.89464 22.9317 8.78741 22.8467H7.49632C7.06596 22.8467 6.64561 22.8467 6.21524 22.7621C5.54468 22.6774 4.60388 22.7621 3.77318 22.5822C3.34815 22.5468 2.94492 22.3689 2.62221 22.0743C2.21289 21.501 1.97267 20.8127 1.93163 20.0958C1.75148 18.7838 1.80152 17.3236 1.69143 16.3608L1.21102 13.0596L0.940794 10.6367C0.920843 10.3196 0.920843 10.0015 0.940794 9.68443C0.925882 9.4837 0.925882 9.28205 0.940794 9.08133C0.994955 8.6679 1.15921 8.27927 1.41439 7.96079C1.66958 7.6423 2.00517 7.4071 2.38201 7.28263C3.68928 6.93157 5.03765 6.7819 6.38539 6.83824C6.46502 6.83824 6.54139 6.8048 6.5977 6.74527C6.65401 6.68574 6.68564 6.60501 6.68564 6.52082C6.68304 6.43568 6.64921 6.35494 6.5913 6.2957C6.5334 6.23646 6.45596 6.20336 6.37538 6.2034H5.15435V5.00779C5.15435 4.60573 5.15435 4.15076 5.22441 3.71696L5.42458 2.36264C5.4723 2.12241 5.57735 1.89907 5.72976 1.71388C5.88217 1.52868 6.07686 1.38778 6.29531 1.30458C6.77174 1.14361 7.28876 1.18536 7.73653 1.42096C8.26429 1.67923 8.74264 2.03788 9.14772 2.47903C9.76824 3.07154 10.3187 3.75928 10.9492 4.38354L10.5089 4.7856C9.92426 5.34229 9.49559 6.05809 9.26967 6.85485C9.04375 7.6516 9.02926 8.49866 9.22778 9.30352C9.64641 10.8373 10.6213 12.1341 11.9401 12.9115C11.9834 12.9459 12.0361 12.9644 12.0902 12.9644C12.1443 12.9644 12.197 12.9459 12.2403 12.9115C12.2403 12.9115 12.2403 12.9962 12.3104 13.0173C12.3782 13.0604 12.4593 13.0734 12.5361 13.0536C12.613 13.0338 12.6793 12.9827 12.7207 12.9115C13.0277 12.4723 13.3621 12.0552 13.7216 11.663C14.172 12.2661 14.5823 13.0596 15.0627 13.7156C15.2996 14.0536 15.5753 14.3593 15.8834 14.6256C16.0254 14.7374 16.1897 14.8134 16.3638 14.8478C16.5641 14.895 16.7691 14.9163 16.9743 14.9113H17.2946C17.3646 14.9113 17.3546 15.144 17.3546 15.2604C17.3582 15.4734 17.3783 15.6857 17.4147 15.8952C17.4497 16.1118 17.5477 16.3115 17.6949 16.4666C17.8888 16.6906 18.1386 16.852 18.4155 16.9321C18.6499 16.9864 18.8872 17.0253 19.1261 17.0485C19.2576 17.0429 19.3883 17.072 19.5065 17.1332C19.5765 17.1861 19.5065 17.2919 19.5565 17.3871C19.5602 17.5233 19.5804 17.6584 19.6165 17.7892C19.6505 17.9651 19.7263 18.1289 19.8367 18.2653C20.2376 18.6513 20.7405 18.8986 21.2779 18.9742C21.8505 19.0686 22.4311 19.097 23.0094 19.0589C23.033 19.109 23.0668 19.153 23.1083 19.1877C23.1498 19.2224 23.1981 19.2471 23.2496 19.2599C23.3398 19.2787 23.4333 19.2593 23.5101 19.2059C23.5869 19.1524 23.6407 19.0692 23.66 18.9742L23.8801 18.0854C24.0496 17.4544 24.0392 16.7845 23.8501 16.1598ZM21.4981 18.1383C21.1618 18.0678 20.8522 17.8949 20.6074 17.641C20.6074 17.641 20.6074 17.5776 20.6074 17.5352C20.6124 17.4577 20.6124 17.38 20.6074 17.3025C20.609 17.0844 20.5681 16.8683 20.4873 16.6676C20.42 16.4918 20.3051 16.3409 20.157 16.2338C20.0039 16.1219 19.835 16.0362 19.6566 15.9799C19.4458 15.9257 19.2318 15.8868 19.016 15.8635C18.8533 15.8629 18.6965 15.7989 18.5757 15.6836C18.4956 15.599 18.5757 15.4509 18.5757 15.3239C18.5763 15.0862 18.5391 14.8502 18.4656 14.6256C18.4057 14.4387 18.3065 14.2686 18.1753 14.1283C18.0272 13.9705 17.8398 13.8605 17.6349 13.8109C17.4191 13.7783 17.2001 13.7783 16.9843 13.8109C16.8242 13.8109 16.654 13.8849 16.5239 13.8109C16.2534 13.6366 16.0075 13.4229 15.7933 13.176C15.2328 12.5624 14.7424 11.8111 14.232 11.2504L14.3321 11.1446L14.9726 10.5309L15.9735 9.59978L16.9743 8.64753C17.5848 9.70559 18.2354 10.6473 18.976 11.6101C19.4764 12.2978 19.9769 12.9538 20.5173 13.6204L21.5182 14.7949C22.0982 15.2902 22.6044 15.8752 23.0194 16.5301C23.2114 16.9884 23.2672 17.4976 23.1796 17.9902L23.1195 18.3394C22.5728 18.3523 22.0271 18.2847 21.4981 18.1383Z" fill="black"/>
<path id="Vector_2" fill-rule="evenodd" clip-rule="evenodd" d="M8.00674 10.3615C8.09534 10.3644 8.18152 10.3306 8.24694 10.2674C8.31237 10.2042 8.35187 10.1164 8.35704 10.0229C8.35974 9.97562 8.3536 9.92826 8.33896 9.88351C8.32431 9.83877 8.30146 9.79752 8.27171 9.76213C8.24195 9.72675 8.20588 9.69792 8.16557 9.6773C8.12525 9.65668 8.08148 9.64467 8.03677 9.64198C7.78592 9.54356 7.52828 9.46574 7.26612 9.4092C6.80276 9.24351 6.30884 9.19637 5.8249 9.27165C4.90837 9.26744 4.01073 9.54698 3.24272 10.0758C2.969 10.3167 2.75554 10.6252 2.62115 10.9739C2.48676 11.3226 2.43556 11.7009 2.47207 12.0755C2.48109 12.4092 2.5561 12.7372 2.69226 13.0384C2.80679 13.2786 2.97515 13.4857 3.18267 13.6414C3.90371 14.0968 4.7249 14.3449 5.56468 14.3609C6.73151 14.3774 7.89347 14.1988 9.00759 13.8319C9.0511 13.8197 9.09189 13.7984 9.12758 13.7694C9.16327 13.7403 9.19315 13.7041 9.21549 13.6627C9.23783 13.6214 9.25219 13.5758 9.25774 13.5286C9.26328 13.4813 9.2599 13.4334 9.24779 13.3875C9.22645 13.295 9.17126 13.2152 9.09434 13.1656C9.01742 13.116 8.92503 13.1007 8.83744 13.123C8.11542 13.2704 7.38083 13.3377 6.64559 13.324C6.7297 13.3109 6.80577 13.2639 6.85797 13.193C6.91017 13.122 6.93447 13.0325 6.92583 12.9431C6.92583 12.4987 6.98588 12.0755 7.0059 11.6311V11.0915V10.5836H7.28613C7.54635 10.499 7.77655 10.4144 8.00674 10.3615ZM6.16519 13.324C5.34546 13.3299 4.54075 13.0916 3.84323 12.6363C3.76884 12.5868 3.71242 12.5123 3.68309 12.4247C3.6323 12.2779 3.59869 12.1251 3.58301 11.9697C3.49293 11.2926 3.66308 10.7424 4.11346 10.5731C6.11515 9.85359 5.84492 11.0915 5.84492 11.1233C5.84954 11.3187 5.86963 11.5133 5.90497 11.7052C5.98504 12.1602 6.10514 12.5834 6.22524 13.0278C6.23523 13.0959 6.263 13.1597 6.30544 13.2121C6.34787 13.2644 6.40329 13.3032 6.46544 13.324H6.16519Z" fill="black"/>
<path id="Vector_3" fill-rule="evenodd" clip-rule="evenodd" d="M5.55468 19.9582C5.83499 20.1887 6.1582 20.3541 6.50315 20.4434C6.84809 20.5327 7.207 20.5441 7.55637 20.4766C8.05656 20.3727 8.50914 20.0939 8.84134 19.6851C9.17354 19.2764 9.36605 18.7614 9.38791 18.223C9.42117 17.7055 9.27791 17.1925 8.98413 16.7771C8.69034 16.3617 8.26547 16.0714 7.78656 15.9587C7.74386 15.9439 7.6988 15.9382 7.65399 15.9419C7.60917 15.9456 7.5655 15.9586 7.52549 15.9803C7.48547 16.0019 7.44991 16.0317 7.42085 16.068C7.3918 16.1042 7.36982 16.1462 7.3562 16.1915C7.33058 16.2827 7.33916 16.3808 7.38016 16.4655C7.42115 16.5503 7.49142 16.615 7.57639 16.6464C7.86087 16.7371 8.10672 16.9294 8.27183 17.1905C8.43695 17.4517 8.51107 17.7654 8.48151 18.0779C8.45194 18.3905 8.32053 18.6824 8.10977 18.9038C7.89901 19.1252 7.622 19.2623 7.32618 19.2916C6.94943 19.3446 6.56813 19.2381 6.26528 18.9953C6.11091 18.9171 5.98248 18.7914 5.89677 18.6347C5.81106 18.478 5.77206 18.2976 5.78488 18.1171C5.83307 17.7311 5.97822 17.3657 6.20523 17.0591C6.46038 16.7443 6.757 16.4699 7.08597 16.2444C7.12016 16.2236 7.15013 16.1958 7.17417 16.1627C7.19821 16.1296 7.21585 16.0919 7.22607 16.0516C7.2363 16.0113 7.23891 15.9693 7.23376 15.9279C7.22861 15.8866 7.2158 15.8467 7.19607 15.8106C7.1545 15.7396 7.08893 15.6881 7.01269 15.6665C6.93646 15.6449 6.85529 15.6548 6.78572 15.6942C6.28069 15.9563 5.82597 16.315 5.44459 16.7522C5.1831 17.058 4.98533 17.4185 4.8641 17.8103C4.74773 18.1994 4.75196 18.6176 4.87619 19.004C5.00041 19.3903 5.23813 19.7246 5.55468 19.9582Z" fill="black"/>
</g>
</svg>
