<svg width="73" height="73" viewBox="0 0 73 73" fill="none" xmlns="http://www.w3.org/2000/svg">
<g id="Search 1">
<g id="Vector">
<path fill-rule="evenodd" clip-rule="evenodd" d="M0.166626 30.3334C0.166626 13.7648 13.5981 0.333374 30.1666 0.333374C46.7352 0.333374 60.1666 13.7648 60.1666 30.3334C60.1666 46.9019 46.7352 60.3334 30.1666 60.3334C13.5981 60.3334 0.166626 46.9019 0.166626 30.3334ZM26.6952 10.1474C26.9111 11.5111 25.9807 12.7917 24.617 13.0077C18.5552 13.9678 13.801 18.722 12.8409 24.7838C12.6249 26.1475 11.3443 27.0779 9.98062 26.8619C8.61691 26.6459 7.68649 25.3653 7.90248 24.0016C9.20144 15.8003 15.6336 9.36818 23.8349 8.06923C25.1986 7.85324 26.4792 8.78365 26.6952 10.1474Z" fill="#12B7D2"/>
<path d="M55.0655 55.2323C56.0419 54.256 57.6248 54.256 58.6011 55.2323L71.9341 68.5654C72.9104 69.5418 72.9104 71.1247 71.934 72.101C70.9577 73.0773 69.3748 73.0773 68.3985 72.1009L55.0655 58.7678C54.0892 57.7915 54.0892 56.2086 55.0655 55.2323Z" fill="#12B7D2"/>
</g>
</g>
</svg>
