<svg width="73" height="75" viewBox="0 0 73 75" fill="none" xmlns="http://www.w3.org/2000/svg">
<g id="Time Circle 2">
<g id="Vector">
<path d="M16.395 5.11889C17.4732 4.25637 17.648 2.68314 16.7855 1.60498C15.9229 0.526826 14.3497 0.352022 13.2716 1.21455L4.93822 7.88121C3.86007 8.74374 3.68526 10.317 4.54779 11.3951C5.41031 12.4733 6.98354 12.6481 8.0617 11.7856L16.395 5.11889Z" fill="#12B7D2"/>
<path d="M59.7284 1.21455C58.6502 0.352022 57.077 0.526826 56.2145 1.60498C55.3519 2.68314 55.5267 4.25637 56.6049 5.11889L64.9382 11.7856C66.0164 12.6481 67.5896 12.4733 68.4521 11.3951C69.3147 10.317 69.1399 8.74374 68.0617 7.88121L59.7284 1.21455Z" fill="#12B7D2"/>
<path fill-rule="evenodd" clip-rule="evenodd" d="M36.5 3.16672C16.7098 3.16672 0.666626 19.2098 0.666626 39C0.666626 58.7903 16.7098 74.8334 36.5 74.8334C56.2902 74.8334 72.3333 58.7903 72.3333 39C72.3333 19.2098 56.2902 3.16672 36.5 3.16672ZM39 22.3334C39 20.9527 37.8807 19.8334 36.5 19.8334C35.1193 19.8334 34 20.9527 34 22.3334V39C34.0003 41.3764 36.8734 42.5666 38.5537 40.8863L45.3389 34.1012C46.3152 33.1249 46.3152 31.5419 45.3389 30.5656C44.3625 29.5893 42.7796 29.5893 41.8033 30.5656L39 33.369V22.3334Z" fill="#12B7D2"/>
</g>
</g>
</svg>
