<svg width="67" height="67" viewBox="0 0 67 67" fill="none" xmlns="http://www.w3.org/2000/svg">
<g id="Vector">
<path d="M56.8149 8.8081C54.7708 8.16376 52.4738 7.85093 49.8199 7.68717C46.7865 7.49999 43.1001 7.49999 38.5775 7.5H28.3691C23.0245 7.49998 18.8346 7.49996 15.4873 7.81822C12.0755 8.14262 9.28179 8.81523 6.81905 10.3244C4.24007 11.9048 2.07174 14.0731 0.491336 16.6521C0.435346 16.7435 0.380507 16.8353 0.326795 16.9276C0.584442 12.1171 1.2574 8.93108 3.01511 6.40889C3.93494 5.089 5.04831 3.92826 6.31436 2.9693C10.2345 0 15.8265 0 27.0105 0H44.9063C50.5303 0 53.3424 0 55.0895 1.8215C56.4314 3.22046 56.7427 5.27426 56.8149 8.8081Z" fill="#12B7D2"/>
<path d="M2.62262 17.9584C0.166626 21.9662 0.166626 27.4219 0.166626 38.3333C0.166626 49.2448 0.166626 54.7005 2.62262 58.7083C3.99689 60.9509 5.88239 62.8364 8.12498 64.2107C12.1328 66.6667 17.5885 66.6667 28.5 66.6667H38.5C49.4114 66.6667 54.8671 66.6667 58.8749 64.2107C61.1175 62.8364 63.003 60.9509 64.3773 58.7083C65.9903 56.0762 66.5439 52.8195 66.734 47.8031H45.6215C39.22 47.8031 34.0306 42.6137 34.0306 36.2122C34.0306 29.8107 39.22 24.6213 45.6215 24.6213H66.4256C66.0915 21.8624 65.4835 19.7635 64.3773 17.9584C63.003 15.7158 61.1175 13.8303 58.8749 12.456C58.2365 12.0648 57.5614 11.7359 56.8333 11.4594C52.9906 10 47.6733 10 38.5 10H28.5C17.5885 10 12.1328 10 8.12498 12.456C5.88239 13.8303 3.99689 15.7158 2.62262 17.9584Z" fill="#12B7D2"/>
<path fill-rule="evenodd" clip-rule="evenodd" d="M66.7596 29.6213H45.6215C41.9814 29.6213 39.0306 32.5721 39.0306 36.2122C39.0306 39.8522 41.9814 42.8031 45.6215 42.8031H66.8255C66.8333 41.4225 66.8333 39.9368 66.8333 38.3333C66.8333 34.9426 66.8333 32.0786 66.7596 29.6213ZM45.6215 33.7122C44.2408 33.7122 43.1215 34.8315 43.1215 36.2122C43.1215 37.5929 44.2408 38.7122 45.6215 38.7122H54.7124C56.0931 38.7122 57.2124 37.5929 57.2124 36.2122C57.2124 34.8315 56.0931 33.7122 54.7124 33.7122H45.6215Z" fill="#12B7D2"/>
</g>
</svg>
